<?xml version="1.0" encoding="UTF-8"?>
<svg id="Calque_1" data-name="Calque 1" xmlns="http://www.w3.org/2000/svg" viewBox="0 0 876.39 893.16">
  <defs>
    <style>
      .cls-1 {
        fill: #fff;
      }
    </style>
  </defs>
  <polygon class="cls-1" points="0 127.78 130.36 0 130.36 758.93 620.82 758.93 498.21 893.16 0 893.16 0 127.78"/>
  <path class="cls-1" d="M719.3,24.14C679.85,7.81,637.39,0,594.69,0H254.27v671.16h132.94l-.28-127.78h201.93c48.94,0,97.48-10.51,141.4-32.1,69.06-33.94,145.42-103.06,146.13-242.82.75-147.74-84.78-214.39-157.08-244.32ZM612.17,413.77h-229.27V121.49h231.55s136.65-1.52,135.89,146.14c-.76,147.66-138.17,146.14-138.17,146.14Z"/>
</svg>